<svg width="361" height="180" viewBox="0 0 361 180" fill="none" xmlns="http://www.w3.org/2000/svg">
<rect width="361" height="180" fill="#BBBBBB"/>
<g id="Release 2">
<rect width="5132" height="2780" transform="translate(-92 -818)" fill="white"/>
<g id="Add Bike 4">
<rect width="393" height="1145" transform="translate(-16 -661)" fill="#F2F2F5"/>
<g id="Frame 427319730">
<g id="Frame 260881473">
<g id="Frame 51">
<g id="my bike ">
<foreignObject x="-20" y="-20" width="401" height="220"><div xmlns="http://www.w3.org/1999/xhtml" style="backdrop-filter:blur(10px);clip-path:url(#bgblur_0_142_208_clip_path);height:100%;width:100%"></div></foreignObject><path id="BG" data-figma-bg-blur-radius="20" d="M0 0H361V180H0L0 0Z" fill="#0050FC" fill-opacity="0.1"/>
<g id="img_frame_number_1">
<path id="Vector" d="M181.942 119.422C183.465 119.494 184.95 119.56 186.434 119.634C188.037 119.714 189.639 119.796 191.241 119.889C192.204 119.945 193.09 120.806 193.265 121.842C193.401 122.654 193.239 123.423 192.841 124.132C192.494 124.748 191.889 124.994 191.223 125.06C190.509 125.131 189.789 125.147 189.071 125.182C186.701 125.298 184.331 125.413 181.978 125.526C181.795 125.844 181.517 126.132 181.468 126.453C181.368 127.113 181.123 127.66 180.658 128.128C180.588 128.199 180.576 128.358 180.587 128.472C180.64 129.012 180.175 129.241 179.945 129.613C179.717 129.983 179.721 130.474 179.197 130.681C178.978 130.767 178.786 131.077 178.705 131.324C178.599 131.651 178.402 131.812 178.136 132.004C177.518 132.45 177.046 133.102 176.261 133.312C175.959 134.152 174.94 134.019 174.464 134.63C174.406 134.704 174.241 134.723 174.127 134.721C173.693 134.714 173.343 134.894 173.018 135.157C172.927 135.232 172.821 135.316 172.711 135.336C171.989 135.464 171.265 135.577 170.54 135.694C170.308 135.732 170.063 135.735 169.844 135.813C169.497 135.937 169.17 136.029 168.797 135.898C168.655 135.848 168.47 135.913 168.305 135.936C168.163 135.954 168.02 136.02 167.883 136.006C167.242 135.943 166.618 136.093 165.996 136.13C165.36 136.168 164.686 136.377 164.034 136.142C163.97 136.119 163.891 136.129 163.819 136.136C163.027 136.219 162.235 136.304 161.443 136.39C161.373 136.397 161.287 136.449 161.236 136.423C160.368 136.006 159.501 136.518 158.62 136.436C158.127 136.39 157.594 136.479 157.073 136.415C156.87 136.39 156.653 136.484 156.442 136.518C156.256 136.547 156.047 136.632 155.885 136.579C155.493 136.449 155.152 136.573 154.774 136.63C154.366 136.692 154.209 136.923 154.024 137.202C152.325 139.771 150.401 142.157 148.205 144.318C143.363 149.083 137.744 152.592 131.296 154.772C128.659 155.663 125.962 156.289 123.214 156.675C120.358 157.075 117.476 157.158 114.603 156.98C110.213 156.706 105.936 155.836 101.799 154.301C96.6154 152.378 91.9537 149.598 87.8439 145.9C83.1592 141.686 79.5523 136.688 77.001 130.928C75.5204 127.586 74.4807 124.115 73.8625 120.509C73.2839 117.135 73.116 113.742 73.3235 110.337C73.49 107.612 73.923 104.916 74.6334 102.271C77.3476 92.1676 82.9459 84.0388 91.404 77.8921C95.5116 74.907 100.041 72.757 104.929 71.378C108.399 70.3988 111.933 69.8411 115.547 69.7691C117.997 69.7201 120.438 69.7828 122.867 70.1005C126.536 70.5797 130.095 71.5048 133.531 72.8795C136.927 74.2384 140.115 75.9813 143.071 78.1414C143.186 78.2257 143.309 78.2978 143.474 78.4044C144.234 77.5693 144.997 76.7515 145.738 75.9136C147.04 74.4402 148.29 72.9321 149.403 71.3009C150.43 69.795 150.574 68.2517 150.012 66.5888C149.522 65.1384 148.968 63.7082 148.497 62.2513C147.805 60.1121 147.146 57.9614 146.499 55.8078C145.114 51.2008 143.747 46.5881 142.371 41.9783C142.097 41.0618 141.816 40.1475 141.535 39.2332C141.466 39.0077 141.381 38.7872 141.287 38.5177C141.007 38.5177 140.749 38.5307 140.492 38.5156C139.69 38.4687 139.276 37.7136 139.776 37.1034C140.286 36.4816 140.311 35.8807 140.061 35.1673C139.744 34.2653 139.486 33.3416 139.2 32.428C139.158 32.2911 139.113 32.1527 139.054 32.0223C138.813 31.487 138.496 31.0684 137.807 31.2125C137.695 31.2363 137.57 31.2038 137.558 31.2031C137.264 30.9452 137.003 30.7809 136.831 30.5496C136.644 30.2981 136.54 29.9847 136.348 29.5928C136.026 29.6173 135.597 29.618 135.18 29.6886C133.625 29.9537 132.288 29.5294 131.134 28.4745C130.709 28.0862 130.286 27.6957 129.852 27.3174C129.659 27.1502 129.458 26.929 129.199 27.2662C129.146 27.3347 128.968 27.3549 128.866 27.3282C128.267 27.1733 127.589 27.1279 127.095 26.8044C125.594 25.8216 124.165 24.7279 122.707 23.6795C122.409 23.4656 122.372 23.1781 122.444 22.8805C122.653 22.7335 122.843 22.6074 123.025 22.4713C123.388 22.1989 123.805 22.1016 124.243 22.1449C125.171 22.2371 126.098 22.3574 127.026 22.4604C128.287 22.6002 129.546 22.7595 130.81 22.8668C132.456 23.0066 134.106 23.1219 135.756 23.2091C136.544 23.2508 137.336 23.2177 138.126 23.1925C139.876 23.1377 141.626 23.0786 143.376 23.0001C145.362 22.9108 147.346 22.7782 149.333 22.7033C150.845 22.6463 152.346 22.7595 153.82 23.1485C154.436 23.3114 154.913 23.6183 155.193 24.207C155.076 25.0564 154.403 25.2603 153.731 25.4333C153.24 25.5601 152.763 25.3555 152.281 25.3036C151.249 25.1926 150.23 25.3857 149.336 25.9953C148.424 26.6163 147.493 27.2093 146.598 27.8513C145.81 28.4155 144.933 28.6748 143.987 28.7685C143.758 28.7908 143.532 28.8355 143.303 28.8701C144.067 31.4337 144.99 33.8913 145.501 36.4318C145.964 38.7368 146.738 40.9314 147.351 43.1809C147.96 45.4195 148.656 47.635 149.332 49.8549C150.016 52.0986 150.734 54.3315 151.415 56.5758C152.117 58.888 152.817 61.2015 153.465 63.5288C153.722 64.4496 154.216 65.0245 155.5 65.0743C156.715 65.1211 157.878 64.8314 159.046 64.5836C163.492 63.6404 167.933 62.6757 172.376 61.7217C175.25 61.105 178.119 60.468 181 59.8873C184.987 59.0839 188.983 58.3317 192.973 57.5457C196.044 56.9404 199.108 56.2984 202.181 55.7076C205.069 55.1521 207.968 54.6514 210.859 54.1059C212.078 53.8761 213.288 53.5937 214.605 53.3134C214.51 52.8335 214.453 52.3926 214.334 51.9696C213.877 50.3579 213.401 48.7511 212.929 47.1437C212.667 46.2553 212.7 46.047 213.566 45.6889C214.602 45.261 215.688 44.954 216.753 44.5988C218.764 43.9273 220.856 43.6989 222.945 43.4345C224.913 43.1859 226.873 42.8804 228.83 42.5562C229.55 42.4366 230.242 42.5317 230.936 42.6448C231.089 42.67 231.209 42.9013 231.451 43.1456C231.521 43.1456 231.761 43.1787 231.989 43.1398C233.205 42.933 234.413 42.9654 235.628 43.1542C235.999 43.2118 236.391 43.1283 236.774 43.1268C238.962 43.1175 241.112 42.8026 243.24 42.3155C244.316 42.0691 245.17 41.4841 245.798 40.5849C246.181 40.0358 246.522 39.4565 246.885 38.8924C247.092 38.5703 247.305 38.2511 247.517 37.9319C248.17 36.947 249.097 36.7546 250.16 37.0702C250.915 37.295 251.66 37.5616 252.391 37.8585C253.295 38.2252 253.502 38.8088 253.086 39.703C252.662 40.6137 252.226 41.5194 251.793 42.4258C251.562 42.9085 251.389 43.3999 251.5 43.9489C251.519 44.0404 251.545 44.1636 251.502 44.2285C251.154 44.753 251.352 45.2891 251.464 45.815C251.702 46.9311 251.355 47.9989 251.222 49.084C250.926 51.5063 250.584 53.9229 250.318 56.3489C250.224 57.2085 250.361 58.0608 250.884 58.8181C251.269 59.3765 251.244 59.553 250.9 60.1806C250.701 60.0523 250.483 59.9514 250.315 59.7972C248.997 58.5875 247.934 57.153 247.029 55.637C246.406 54.5944 246.221 53.3364 246.275 52.1008C246.288 51.8082 246.517 51.484 246.73 51.2506C247.182 50.7556 247.695 50.3168 248.171 49.8427C248.811 49.2058 249.201 48.491 249 47.5291C248.904 47.0716 248.953 46.5831 248.934 46.0189C248.634 46.0701 248.332 46.029 248.197 46.1594C247.517 46.8122 246.643 46.8756 245.8 46.9823C245.074 47.0738 244.41 47.2993 243.743 47.5738C243.392 47.7186 243.166 47.9305 243.135 48.2907C243.091 48.8196 242.849 49.1892 242.476 49.3398C242.348 50.4688 242.169 51.5035 242.126 52.5439C242.067 53.969 241.341 55.093 240.597 56.2048C239.539 57.7849 238.22 59.1423 236.821 60.4248C234.744 62.3291 232.318 63.6397 229.697 64.6167C229.407 64.7248 229.1 64.7875 228.798 64.8588C227.849 65.0843 226.899 65.3041 225.868 65.5447C226.538 67.7488 227.182 69.9096 228.02 72.0214C229.191 71.6763 230.329 71.3103 231.483 71.0069C233.707 70.4219 235.961 70.0177 238.252 69.7677C240.716 69.4982 243.183 69.4312 245.648 69.5501C247.365 69.6329 249.084 69.8469 250.783 70.1185C253.456 70.5451 256.059 71.2641 258.604 72.1972C263.49 73.9877 267.927 76.557 271.915 79.8922C276.803 83.9804 280.644 88.8965 283.424 94.6331C285.093 98.0765 286.265 101.683 286.991 105.441C287.696 109.087 287.923 112.763 287.674 116.457C287.324 121.664 286.09 126.664 283.91 131.415C280.231 139.434 274.629 145.783 267.203 150.527C263.031 153.192 258.522 155.093 253.707 156.232C251.194 156.828 248.652 157.289 246.051 157.323C244.663 157.341 243.271 157.48 241.887 157.423C232.574 157.036 224.082 154.217 216.576 148.645C209.576 143.448 204.577 136.716 201.507 128.566C200.323 125.421 199.56 122.166 199.133 118.825C198.764 115.933 198.682 113.032 198.913 110.142C199.63 101.213 202.76 93.208 208.343 86.1787C212.184 81.3405 216.85 77.4915 222.289 74.572C222.437 74.4928 222.584 74.4128 222.728 74.3263C222.787 74.2903 222.835 74.2363 222.922 74.1606C222.156 73.149 221.391 72.1417 220.592 71.0883C219.936 71.0091 219.405 71.3643 218.938 71.8305C217.649 73.118 216.349 74.3969 215.095 75.7198C212.39 78.5744 209.676 81.4226 207.029 84.3306C203.463 88.2494 199.95 92.218 196.425 96.1743C192.453 100.632 188.49 105.099 184.527 109.565C183.126 111.144 181.733 112.729 180.336 114.311C180.273 114.383 180.213 114.458 180.156 114.534C179.726 115.101 179.72 115.14 180.268 115.552C180.561 115.772 180.705 116.023 180.717 116.395C180.723 116.586 180.814 116.831 180.953 116.95C181.225 117.182 181.306 117.449 181.281 117.777C181.252 118.15 181.319 118.469 181.615 118.751C181.775 118.904 181.825 119.172 181.943 119.429L181.942 119.422ZM192.331 92.1337C192.428 92.0501 192.507 91.9968 192.569 91.9262C193.819 90.5039 195.065 89.078 196.315 87.6557C199.353 84.198 202.398 80.7461 205.43 77.2833C208.478 73.8018 211.525 70.3188 214.551 66.8172C215.239 66.021 215.844 65.1521 216.471 64.3048C216.897 63.7305 217.016 63.1029 216.781 62.4019C216.514 61.6079 216.288 60.8002 216.054 59.9961C215.913 59.5141 215.623 59.1899 215.116 59.125C214.287 59.0191 213.446 58.8166 212.625 58.8714C210.693 59.0004 208.766 59.2345 206.843 59.4694C204.85 59.7129 202.86 59.9968 200.872 60.2829C198.812 60.5783 196.753 60.878 194.7 61.2116C192.364 61.5913 190.032 61.997 187.704 62.4156C183.704 63.1346 179.705 63.8544 175.712 64.6088C172.286 65.2565 168.867 65.9374 165.452 66.6342C163.51 67.0304 161.569 67.444 159.648 67.9318C158.394 68.2503 157.357 69.0068 156.441 69.9125C156.07 70.2807 155.802 70.7598 155.894 71.2692C156.093 72.368 156.354 73.4588 156.655 74.5353C156.903 75.4208 157.271 76.2717 157.54 77.1522C158.287 79.6026 159.011 82.0603 159.744 84.5158C160.853 88.2329 161.963 91.95 163.071 95.6671C163.33 96.5339 163.583 97.4021 163.836 98.2595C164.132 98.2861 164.367 98.3077 164.585 98.3272C164.84 98.858 164.747 99.3201 164.307 99.7135C164.304 99.761 164.288 99.8136 164.301 99.8561C164.582 100.747 164.864 101.636 165.151 102.526C165.244 102.814 165.319 103.081 165.615 103.289C165.802 103.421 165.939 103.823 165.889 104.058C165.738 104.754 166.082 105.302 166.26 105.901C166.633 105.991 167.032 105.839 167.252 106.336C167.514 106.924 166.959 107.071 166.787 107.437C166.943 107.832 167.099 108.228 167.251 108.612C167.524 108.667 167.787 108.661 167.984 108.771C168.385 108.995 168.752 108.963 169.151 108.795C169.295 108.734 169.527 108.677 169.624 108.748C170.306 109.252 171.277 108.674 171.898 109.373C171.933 109.413 172.038 109.404 172.108 109.397C172.596 109.347 173.058 109.352 173.41 109.788C173.487 109.883 173.675 109.947 173.801 109.932C174.267 109.875 174.549 110.091 174.835 110.435C175.207 110.884 175.703 110.854 176.123 110.435C176.242 110.316 176.353 110.19 176.464 110.064C179.282 106.889 182.098 103.713 184.915 100.537C185.228 100.184 185.537 99.8266 185.843 99.4778C185.701 99.1932 185.585 98.9613 185.456 98.6997C185.675 98.4598 185.881 98.2364 186.085 98.0138C186.376 98.1204 186.617 98.209 186.884 98.307C188.372 96.6297 189.844 94.9703 191.301 93.3283C191.156 93.0185 191.046 92.7843 190.921 92.5192C191.138 92.2836 191.344 92.0617 191.528 91.8621C191.822 91.9615 192.048 92.0379 192.332 92.1337H192.331ZM109.033 111.439C108.515 110.857 108.079 110.378 107.658 109.888C107.386 109.573 107.058 109.476 106.644 109.475C104.847 109.469 103.048 109.426 101.25 109.407C95.4006 109.347 89.5508 109.287 83.701 109.24C83.1887 109.236 82.6757 109.332 82.1454 109.383C81.7953 112.253 81.8277 115.056 82.2117 117.898C82.92 117.932 83.5562 117.983 84.1931 117.988C84.6946 117.993 85.1968 117.935 85.699 117.916C87.0384 117.863 88.3778 117.814 89.718 117.767C92.4948 117.671 95.2717 117.563 98.0485 117.486C100.875 117.406 103.703 117.353 106.53 117.299C106.891 117.292 107.172 117.177 107.422 116.921C107.907 116.424 108.396 115.929 108.906 115.457C109.273 115.117 109.373 114.724 109.165 114.292C108.934 113.815 108.935 113.321 108.956 112.819C108.978 112.294 109.015 111.77 109.033 111.438V111.439ZM121.255 78.5716C118.34 78.1493 115.496 78.2516 112.633 78.6105C112.614 79.055 112.575 79.4347 112.584 79.813C112.629 81.754 112.669 83.6958 112.744 85.6362C112.871 88.9397 113.037 92.2418 113.159 95.546C113.252 98.0613 113.3 100.578 113.378 103.094C113.385 103.298 113.419 103.549 113.542 103.691C113.883 104.083 114.278 104.428 114.533 104.676C115.181 104.605 115.674 104.554 116.165 104.495C116.328 104.475 116.489 104.438 116.649 104.405C116.997 104.333 117.347 104.193 117.692 104.202C118.57 104.223 119.446 104.31 120.404 104.377C121.005 103.967 121.23 103.335 121.222 102.485C121.186 99.0311 121.222 95.577 121.24 92.1236C121.251 89.9174 121.26 87.7105 121.301 85.5043C121.343 83.2282 121.407 80.9536 121.254 78.5716H121.255ZM112.387 105.869C111.971 104.745 111.502 103.546 111.089 102.327C110.884 101.72 110.567 101.225 110.117 100.771C105.579 96.1938 101.054 91.602 96.5189 87.0224C96.1233 86.6232 95.6723 86.2781 95.2356 85.8977C92.9596 87.7098 90.9371 89.6876 89.2259 91.981C89.6301 92.4219 89.9608 92.8326 90.3412 93.19C91.8608 94.6166 93.4012 96.0201 94.9237 97.4438C97.8115 100.145 100.694 102.852 103.572 105.565C103.896 105.87 104.256 106.066 104.68 106.193C106.419 106.712 108.154 107.246 109.89 107.776C110.508 107.965 110.761 107.894 111.175 107.385C111.565 106.906 111.946 106.42 112.387 105.869V105.869ZM252.69 110.399C252.914 111.645 253.202 112.791 252.852 114.01C252.678 114.616 252.822 115.314 252.822 116.029C261.335 116.662 269.873 117.441 278.489 118.059C278.93 115.119 278.969 112.256 278.571 109.372C277.97 109.321 277.448 109.234 276.929 109.244C275.852 109.265 274.776 109.339 273.699 109.391C270.805 109.529 267.911 109.669 265.017 109.804C264.491 109.829 263.962 109.818 263.436 109.842C261.977 109.91 260.518 109.999 259.059 110.059C257.24 110.133 255.42 110.185 253.601 110.258C253.319 110.27 253.04 110.343 252.691 110.399L252.69 110.399ZM251.851 118.101C251.702 118.334 251.624 118.453 251.549 118.575C251.186 119.169 250.843 119.773 250.108 120.004C249.977 120.045 249.822 120.222 249.796 120.359C249.706 120.835 249.36 121.086 249.018 121.346C248.666 121.615 248.303 121.868 247.923 122.144C248.984 123.369 250 124.549 251.021 125.722C254.501 129.715 257.982 133.709 261.467 137.699C262.58 138.975 263.707 140.239 264.819 141.497C266.706 140.239 270.592 136.43 271.059 135.248C264.743 129.513 258.291 123.872 251.851 118.102L251.851 118.101ZM95.7191 141.202C96.2127 140.733 96.7033 140.313 97.1421 139.844C99.4341 137.394 101.709 134.928 103.996 132.474C106.12 130.195 108.249 127.919 110.385 125.652C110.764 125.25 110.931 124.785 111.005 124.239C110.853 124.215 110.737 124.186 110.619 124.181C110.002 124.153 109.475 123.981 108.915 123.647C108.384 123.33 107.979 123.042 107.787 122.457C107.749 122.342 107.593 122.257 107.479 122.176C107.218 121.989 107.155 121.772 107.195 121.436C107.29 120.631 107.411 119.853 108.034 119.235C107.041 119.524 106.101 119.863 105.148 120.159C104.627 120.321 104.21 120.598 103.826 120.977C99.7619 124.982 95.6881 128.976 91.6201 132.976C90.909 133.675 90.1265 134.312 89.5797 135.157C90.6539 136.769 93.9186 139.992 95.7177 141.203L95.7191 141.202ZM265.058 85.6549C262.003 88.6529 259.254 91.8469 256.365 94.9069C253.458 97.9857 250.59 101.103 247.675 104.235C248.019 104.454 248.29 104.607 248.54 104.789C248.77 104.956 249.048 105.114 249.183 105.346C249.431 105.774 249.655 106.159 250.204 106.256C250.358 106.284 250.495 106.493 250.61 106.643C251.003 107.153 251.382 107.674 251.782 108.212C251.877 108.138 251.971 108.07 252.06 107.996C254.289 106.143 256.517 104.288 258.744 102.434C262.445 99.3539 266.149 96.2774 269.843 93.1892C270.331 92.7814 270.767 92.3131 271.283 91.8196C269.458 89.5074 267.445 87.4857 265.059 85.6549H265.058ZM247.321 148.535C247.213 146.513 247.115 144.602 247.007 142.692C246.905 140.898 246.791 139.105 246.684 137.312C246.601 135.925 246.523 134.537 246.44 133.15C246.331 131.357 246.21 129.564 246.11 127.77C246.029 126.311 245.971 124.851 245.896 123.392C245.89 123.283 245.836 123.177 245.796 123.041C245.614 123.083 245.48 123.125 245.342 123.143C244.442 123.261 243.542 123.447 242.64 123.466C241.843 123.483 241.044 123.312 240.155 123.212C240.121 123.711 240.094 124.132 240.063 124.552C239.927 126.391 239.782 128.228 239.655 130.068C239.527 131.931 239.426 133.797 239.296 135.66C239.17 137.476 239.015 139.29 238.886 141.105C238.745 143.088 238.611 145.072 238.494 147.057C238.466 147.526 238.522 147.999 238.539 148.478C241.472 148.867 244.329 148.902 247.321 148.534V148.535ZM233.793 118.632C233.659 118.74 233.545 118.827 233.437 118.921C228.219 123.405 223.001 127.886 217.788 132.375C216.793 133.232 215.715 134.004 214.887 135.098C216.657 137.37 218.678 139.393 221.036 141.219C226.682 134.953 232.305 128.712 237.952 122.443C237.73 122.303 237.589 122.215 237.449 122.124C236.81 121.709 236.111 121.365 235.781 120.604C235.73 120.486 235.588 120.347 235.472 120.331C234.955 120.257 234.715 119.852 234.431 119.507C234.205 119.232 234.01 118.932 233.793 118.632ZM238.719 78.4419C238.785 80.5349 238.833 82.5192 238.915 84.5021C239.035 87.4209 239.184 90.3382 239.312 93.257C239.41 95.4819 239.493 97.7076 239.585 99.9325C239.591 100.075 239.581 100.23 239.633 100.358C240.001 101.262 240.384 102.16 240.771 103.082C241.113 103.067 241.421 103.054 241.73 103.038C242.039 103.021 242.386 102.9 242.652 102.998C243.557 103.333 244.508 103.044 245.45 103.358C245.579 101.801 245.695 100.324 245.822 98.8481C246.052 96.1794 246.288 93.5106 246.522 90.8418C246.71 88.6962 246.892 86.5498 247.086 84.4048C247.209 83.0474 247.368 81.6921 247.474 80.3332C247.522 79.7193 247.481 79.099 247.481 78.4368C244.555 78.1371 241.694 78.1284 238.718 78.4419H238.719ZM207.7 117.606C208.292 117.642 208.84 117.72 209.383 117.698C210.459 117.655 211.532 117.542 212.607 117.485C214.09 117.406 215.575 117.359 217.059 117.283C218.325 117.218 219.59 117.12 220.856 117.053C222.292 116.978 223.728 116.929 225.164 116.852C226.502 116.782 227.839 116.692 229.176 116.608C230.343 116.535 231.508 116.46 232.727 116.382C232.658 116.088 232.589 115.838 232.542 115.584C232.361 114.609 231.993 113.639 232.482 112.644C232.538 112.529 232.489 112.363 232.489 112.219C232.489 111.77 232.489 111.321 232.489 110.879C232.02 110.558 231.525 110.709 231.059 110.67C229.343 110.524 227.627 110.372 225.909 110.246C224.167 110.118 222.422 110.029 220.68 109.905C218.245 109.731 215.812 109.54 213.378 109.358C212.615 109.301 211.846 109.282 211.089 109.185C209.997 109.046 208.908 109.028 207.753 109.09C207.325 111.913 207.303 114.712 207.7 117.606ZM145.186 134.934C144.733 134.462 144.358 134.027 143.938 133.639C142.67 132.468 141.382 131.319 140.109 130.154C136.467 126.819 132.828 123.479 129.185 120.145C129.028 120.002 128.867 119.832 128.675 119.763C127.551 119.36 126.419 118.977 125.286 118.599C124.949 118.486 124.697 118.593 124.511 118.924C124.349 119.213 124.147 119.492 123.911 119.724C123.491 120.138 123.426 120.582 123.687 121.092C123.812 121.335 123.873 121.554 123.722 121.833C123.52 122.204 123.547 122.604 123.685 123.014C124.09 124.215 124.451 125.431 124.869 126.628C124.982 126.953 125.193 127.269 125.432 127.519C126.194 128.317 126.99 129.081 127.771 129.86C129.673 131.757 131.578 133.651 133.471 135.557C133.766 135.853 134.024 136.045 134.467 135.825C134.655 135.732 134.929 135.755 135.15 135.796C135.911 135.936 136.687 135.668 137.443 135.892C137.519 135.914 137.622 135.823 137.715 135.816C137.969 135.797 138.228 135.766 138.478 135.794C139.244 135.877 140.018 135.696 140.78 135.872C140.819 135.882 140.869 135.833 140.915 135.831C141.706 135.8 142.497 135.771 143.289 135.745C143.334 135.744 143.384 135.769 143.424 135.793C143.818 136.031 144.193 135.849 144.509 135.662C144.763 135.512 144.931 135.217 145.185 134.934H145.186ZM127.246 106.629C127.379 106.643 127.584 106.605 127.643 106.68C127.959 107.085 128.306 106.929 128.667 106.79C128.912 106.696 129.157 106.589 129.412 106.532C130.044 106.391 130.523 106.034 130.976 105.584C134.491 102.082 138.029 98.6039 141.538 95.0957C142.647 93.9876 143.897 93.012 144.833 91.6819C143.194 89.6062 141.36 87.7436 139.215 86.0404C139.097 86.2068 139.022 86.3314 138.929 86.4402C137.909 87.6175 136.88 88.7877 135.866 89.9693C131.855 94.6411 127.85 99.3179 123.835 103.987C123.529 104.342 123.318 104.717 123.211 105.176C123.063 105.81 123.243 106.17 123.938 106.469C123.954 106.401 123.98 106.334 123.985 106.267C124.042 105.493 124.307 105.303 125.091 105.465C125.227 105.493 125.373 105.505 125.511 105.49C126.558 105.376 126.945 105.625 127.247 106.629H127.246ZM221.14 85.7024C218.862 87.4475 216.83 89.4512 214.993 91.7958C220.444 96.8084 225.969 101.68 231.433 106.623C231.86 106.012 232.172 105.399 232.638 104.942C233.175 104.415 233.403 103.435 234.443 103.547C234.458 103.549 234.473 103.511 234.494 103.499C234.738 103.364 234.983 103.23 235.268 103.074C235.104 102.757 235.302 102.521 235.651 102.343C235.468 102.109 235.331 101.917 235.178 101.738C231.241 97.16 227.307 92.5804 223.361 88.0102C222.679 87.2198 222.089 86.3358 221.14 85.7024ZM252.473 109.793C253.467 109.378 254.395 108.992 255.322 108.605C260.221 106.558 265.131 104.537 270.013 102.452C272.005 101.601 274.085 100.938 275.999 99.774C274.869 97.1081 273.444 94.6331 271.624 92.2656C268.227 94.8983 265.026 97.7083 261.75 100.426C258.474 103.144 255.216 105.884 251.954 108.612C252.145 109.046 252.298 109.394 252.474 109.793L252.473 109.793ZM248.062 78.5319C247.584 82.7368 247.288 86.8603 246.94 90.9787C246.589 95.1231 246.215 99.2653 245.85 103.433C246.269 103.609 246.637 103.765 247.067 103.946C247.172 103.714 247.274 103.505 247.363 103.29C250.154 96.5252 252.947 89.7603 255.728 82.9912C256.023 82.2743 256.244 81.5264 256.508 80.7677C253.766 79.6862 251.04 78.9448 248.061 78.5326L248.062 78.5319ZM276.189 126.818C277.272 124.191 278.039 121.484 278.408 118.629C277.926 118.545 277.532 118.451 277.133 118.414C275.967 118.304 274.799 118.217 273.632 118.121C271.367 117.935 269.102 117.749 266.837 117.564C264.476 117.372 262.114 117.184 259.754 116.987C258.254 116.862 256.757 116.71 255.256 116.592C254.376 116.523 253.493 116.498 252.557 116.451C252.457 116.72 252.354 117 252.245 117.292C252.392 117.368 252.472 117.419 252.558 117.453C254.085 118.079 255.612 118.702 257.14 119.325C262.387 121.463 267.632 123.604 272.882 125.734C273.937 126.162 274.966 126.679 276.189 126.817V126.818ZM106.7 109.015C105.685 108.065 104.802 107.228 103.901 106.409C103.77 106.29 103.558 106.253 103.377 106.197C99.8844 105.12 96.3949 104.03 92.8947 102.977C90.0674 102.127 87.2863 101.117 84.3999 100.497C83.6167 101.757 82.1505 107.43 82.3248 108.779C83.165 108.834 84.0195 108.935 84.8747 108.94C91.3009 108.975 97.7264 108.992 104.153 109.015C104.937 109.017 105.722 109.015 106.7 109.015H106.7ZM121.64 102.964C122.61 101.854 123.492 100.853 124.362 99.8403C124.465 99.7199 124.516 99.5456 124.564 99.3885C125.05 97.8106 125.526 96.2305 126.014 94.6533C127.278 90.563 128.553 86.4763 129.806 82.3823C129.961 81.8758 130.009 81.3361 130.12 80.7381C128.717 80.2936 127.391 79.8094 126.03 79.4607C124.684 79.1163 123.329 78.743 121.846 78.707C121.799 79.3533 121.729 79.9211 121.72 80.4896C121.692 82.4313 121.683 84.3731 121.671 86.3156C121.641 91.6142 121.612 96.9128 121.585 102.211C121.585 102.416 121.614 102.621 121.639 102.965L121.64 102.964ZM129.046 109.38C129.316 109.38 129.554 109.389 129.792 109.378C130.676 109.337 131.559 109.279 132.443 109.246C133.784 109.195 135.124 109.167 136.465 109.117C139.168 109.017 141.871 108.909 144.575 108.804C144.718 108.798 144.862 108.793 145.006 108.785C146.56 108.71 148.114 108.623 149.669 108.564C150.473 108.534 151.288 108.618 152.098 108.282C151.666 105.501 150.917 102.805 149.839 100.204C149.348 100.31 148.901 100.363 148.483 100.503C142.823 102.407 137.167 104.322 131.513 106.241C131.131 106.37 130.702 106.478 130.409 106.729C129.797 107.255 129.261 107.87 128.695 108.447C128.821 108.784 128.929 109.07 129.046 109.381V109.38ZM238.411 122.605C238.211 122.803 238.05 122.946 237.907 123.104C236.718 124.422 235.535 125.745 234.346 127.063C230.329 131.515 226.309 135.962 222.298 140.419C221.988 140.764 221.745 141.167 221.461 141.556C223.838 143.294 226.268 144.777 229.02 145.846C230.854 142.059 232.406 138.22 234.073 134.432C235.75 130.624 237.387 126.799 239.054 122.952C238.818 122.825 238.634 122.725 238.412 122.605H238.411ZM264.415 141.826C263.997 141.283 263.63 140.752 263.209 140.267C259.461 135.967 255.705 131.675 251.95 127.381C250.593 125.83 249.235 124.279 247.875 122.732C247.528 122.337 247.523 122.342 247.077 122.613C247.137 122.788 247.19 122.971 247.262 123.147C250.214 130.313 253.164 137.481 256.128 144.643C256.332 145.138 256.639 145.59 256.898 146.064C259.603 144.936 262.088 143.57 264.414 141.825L264.415 141.826ZM209.958 126.514C211.227 126.177 232.378 117.966 233.2 117.494C233.101 117.267 232.999 117.036 232.893 116.793C231.667 116.854 230.496 116.916 229.325 116.97C227.888 117.035 226.45 117.086 225.012 117.159C223.625 117.23 222.24 117.332 220.853 117.406C219.488 117.478 218.122 117.52 216.757 117.597C214.318 117.736 211.879 117.887 209.441 118.04C208.899 118.075 208.359 118.143 207.76 118.202C208.173 121.081 208.88 123.82 209.958 126.514ZM84.5419 126.688C85.1247 126.54 85.6385 126.443 86.1299 126.279C87.5118 125.818 88.8822 125.323 90.2605 124.85C94.3271 123.454 98.3828 122.025 102.471 120.693C103.722 120.286 104.768 119.69 105.617 118.703C105.924 118.348 106.279 118.034 106.675 117.638C104.307 117.707 102.06 117.774 99.813 117.84C98.0644 117.892 96.3164 117.942 94.5677 117.999C91.5034 118.097 88.4398 118.197 85.3762 118.303C84.6586 118.327 83.9402 118.36 83.2248 118.422C82.9286 118.448 82.6404 118.56 82.3234 118.638C82.7391 121.426 83.4647 124.063 84.5426 126.688H84.5419ZM246.655 122.758C246.263 122.83 246.269 123.029 246.28 123.224C246.316 123.918 246.354 124.61 246.396 125.303C246.53 127.527 246.674 129.749 246.798 131.973C246.884 133.504 246.932 135.037 247.021 136.568C247.178 139.27 247.356 141.971 247.522 144.673C247.597 145.908 247.569 147.154 247.889 148.411C250.76 148.112 253.501 147.351 256.22 146.322C256.079 145.825 255.994 145.353 255.816 144.92C252.77 137.532 249.713 130.15 246.654 122.758H246.655ZM112.922 103.045C112.922 102.281 112.94 101.685 112.919 101.09C112.824 98.3611 112.712 95.6325 112.617 92.9025C112.558 91.2021 112.516 89.501 112.468 87.7998C112.444 86.9612 112.438 86.1218 112.403 85.2831C112.336 83.6562 112.236 82.03 112.191 80.4024C112.176 79.826 112.098 79.2813 111.891 78.7193C109.088 79.1155 106.41 79.8389 103.828 80.911C103.944 81.3859 104.007 81.8146 104.153 82.2123C106.429 88.4361 108.717 94.6562 111.004 100.877C111.061 101.033 111.108 101.212 111.217 101.326C111.743 101.877 112.287 102.41 112.921 103.044L112.922 103.045ZM112.454 148.181C112.795 147.251 112.69 146.338 112.69 145.434C112.691 138.839 112.69 132.243 112.684 125.648C112.684 125.11 112.64 124.571 112.616 124.033C112.174 124.312 111.884 124.653 111.563 124.963C111.191 125.324 110.967 125.746 110.815 126.243C110.472 127.364 110.076 128.468 109.701 129.579C108.074 134.407 106.443 139.235 104.825 144.067C104.609 144.713 104.46 145.382 104.274 146.061C106.982 147.109 109.672 147.813 112.454 148.181L112.454 148.181ZM239.501 123.057C239.355 123.353 239.207 123.624 239.084 123.907C236.407 130.025 233.73 136.142 231.061 142.263C230.52 143.505 229.879 144.71 229.593 146.121C232.253 147.205 235.001 147.932 237.852 148.357C237.94 147.998 238.058 147.7 238.079 147.396C238.639 139.371 239.188 131.346 239.737 123.32C239.74 123.276 239.719 123.227 239.704 123.183C239.696 123.162 239.675 123.144 239.657 123.13C239.639 123.116 239.615 123.11 239.503 123.057H239.501ZM207.819 108.438C210.522 108.89 213.179 108.902 215.816 109.123C218.487 109.345 221.163 109.508 223.837 109.703C226.484 109.897 229.129 110.099 231.787 110.298C231.709 109.405 231.225 108.975 230.486 108.71C229.722 108.435 228.985 108.084 228.235 107.767C223.189 105.634 218.144 103.5 213.097 101.369C212.117 100.956 211.133 100.55 210.111 100.124C208.988 102.817 208.266 105.527 207.819 108.438ZM252.317 117.915C252.401 118.011 252.457 118.089 252.528 118.151C253.92 119.398 255.313 120.644 256.706 121.889C260.744 125.498 264.777 129.111 268.822 132.711C269.675 133.47 270.464 134.314 271.494 134.85C272.843 133.379 275.21 129.398 275.862 127.494C275.501 127.292 275.148 127.042 274.758 126.885C267.36 123.884 259.956 120.896 252.552 117.908C252.495 117.885 252.418 117.911 252.316 117.916L252.317 117.915ZM214.465 134.545C215.03 134.131 215.568 133.773 216.066 133.367C216.716 132.837 217.332 132.265 217.967 131.717C223.032 127.344 228.097 122.973 233.159 118.597C233.308 118.468 233.427 118.304 233.573 118.142C233.231 117.872 232.993 118.082 232.771 118.168C229.289 119.513 225.813 120.869 222.336 122.225C219.527 123.321 216.714 124.407 213.914 125.523C212.68 126.014 211.386 126.378 210.232 127.161C211.331 129.775 212.716 132.223 214.465 134.544V134.545ZM231.39 107.091C231.299 107.017 231.185 106.93 231.078 106.834C228.776 104.771 226.468 102.713 224.172 100.642C221.485 98.2191 218.809 95.7816 216.12 93.3607C215.667 92.9536 215.169 92.5977 214.698 92.2223C213.358 93.6914 210.539 98.5361 210.41 99.6803C212.579 100.87 214.928 101.693 217.206 102.675C219.468 103.649 221.748 104.581 224.018 105.537C226.301 106.497 228.58 107.464 230.836 108.417C231.039 107.929 231.203 107.537 231.39 107.091L231.39 107.091ZM253.401 109.909C253.632 109.93 253.72 109.948 253.807 109.943C255.981 109.819 258.155 109.672 260.331 109.573C262.343 109.481 264.357 109.448 266.37 109.376C267.424 109.339 268.476 109.274 269.53 109.226C271.684 109.13 273.838 109.015 275.993 108.955C276.834 108.931 277.649 108.828 278.479 108.613C278.079 105.782 277.351 103.075 276.252 100.39C275.567 100.625 274.928 100.809 274.318 101.06C272.304 101.889 270.302 102.744 268.296 103.588C263.532 105.593 258.769 107.597 254.006 109.602C253.84 109.672 253.684 109.765 253.402 109.909L253.401 109.909ZM257.112 81.0198C255.419 84.5345 248.077 102.365 247.992 103.201C248.126 103.088 248.242 103.009 248.334 102.91C250.678 100.409 253.023 97.9071 255.363 95.4019C257.948 92.6337 260.535 89.8655 263.109 87.0865C263.622 86.5317 264.083 85.9287 264.601 85.3076C262.247 83.5488 259.78 82.1518 257.112 81.0198ZM145.092 79.6754C145.328 79.8858 145.535 80.0796 145.752 80.2626C147.457 81.7087 149.033 83.2866 150.482 84.987C154.304 89.4736 157.15 94.5114 158.974 100.121C159.026 100.28 159.086 100.438 159.144 100.595C159.24 100.853 159.427 100.971 159.7 100.943C159.909 100.922 160.117 100.891 160.355 100.86C160.299 100.647 160.267 100.485 160.214 100.329C159.701 98.8114 159.146 97.3055 158.677 95.7737C157.411 91.6322 156.182 87.4792 154.934 83.332C154.086 80.514 153.232 77.6983 152.374 74.8833C152.291 74.6109 152.189 74.3335 152.037 74.0965C151.718 73.5972 151.223 73.5208 150.747 73.881C150.499 74.0684 150.267 74.2802 150.05 74.5028C148.527 76.0663 147.009 77.6349 145.493 79.2042C145.362 79.3389 145.248 79.4909 145.093 79.6754H145.092ZM121.73 148.238C121.827 144.374 121.421 140.572 121.376 136.661C120.982 136.661 120.661 136.65 120.342 136.665C120.104 136.676 119.857 136.779 119.633 136.739C118.813 136.591 117.986 136.701 117.164 136.637C116.186 136.561 115.198 136.614 114.217 136.566C113.839 136.548 113.467 136.407 113.073 136.317C113.073 136.512 113.073 136.774 113.073 137.037C113.072 140.081 113.065 143.126 113.074 146.17C113.076 146.856 113.131 147.542 113.163 148.267C116.017 148.666 118.802 148.633 121.729 148.237L121.73 148.238ZM149.83 126.908C146.491 125.63 143.159 124.617 139.865 123.497C136.578 122.378 133.283 121.28 129.906 120.145C129.989 120.291 130.004 120.342 130.037 120.373C131.853 122.044 133.67 123.715 135.488 125.384C137.767 127.475 140.043 129.566 142.326 131.652C143.364 132.6 144.413 133.536 145.486 134.505C147.282 132.146 148.679 129.681 149.83 126.908ZM103.72 145.835C105.052 142.657 105.967 139.388 107.069 136.186C108.175 132.969 109.233 129.735 110.312 126.508C110.13 126.519 110.051 126.571 109.987 126.639C108.636 128.068 107.282 129.494 105.939 130.93C103.433 133.61 100.925 136.287 98.4376 138.985C97.6681 139.82 96.7898 140.569 96.1982 141.6C98.5197 143.322 100.987 144.714 103.72 145.835ZM95.686 85.5619C98.0752 88.1623 100.565 90.514 102.954 92.9623C105.357 95.4228 107.773 97.8711 110.183 100.324C110.219 100.029 110.153 99.8057 110.075 99.5881C108.354 94.8464 106.649 90.099 104.901 85.3674C104.384 83.9682 104.051 82.4846 103.144 81.1928C100.532 82.3189 98.0867 83.7383 95.6867 85.5627L95.686 85.5619ZM226.782 61.5351C227.644 61.2354 228.386 60.9947 229.114 60.7188C230.342 60.254 231.471 59.6186 232.558 58.8692C233.728 58.0615 234.775 57.158 235.704 56.0801C236.396 55.2775 237.04 54.4453 237.532 53.5209C237.886 52.8573 238.119 52.1145 238.306 51.381C238.51 50.587 238.238 49.8823 237.659 49.2944C237.256 48.8851 236.827 48.4896 236.488 48.0292C235.924 47.2625 235.11 47.1285 234.273 47.0716C233.827 47.0413 233.372 47.1451 232.946 47.1862C232.64 47.6884 232.346 48.1459 232.076 48.6164C230.446 51.4609 228.82 54.3091 227.69 57.4023C227.222 58.6833 226.927 60.0047 226.782 61.5329V61.5351ZM150.084 126.483C150.621 124.744 151.112 123.153 151.616 121.518C151.312 121.433 151.11 121.369 150.905 121.321C149.673 121.032 148.44 120.746 147.207 120.461C143.926 119.704 140.645 118.944 137.362 118.197C136.944 118.102 136.511 118.037 136.085 118.037C133.446 118.032 130.808 118.05 128.169 118.063C128.021 118.064 127.873 118.097 127.682 118.12C128.368 118.986 129.167 119.516 130.162 119.842C134.954 121.414 139.731 123.031 144.514 124.631C146.32 125.235 148.128 125.833 150.084 126.483ZM84.8034 127.3C85.9713 129.962 87.4052 132.42 89.2259 134.757C93.9884 130.164 98.635 125.591 103.217 120.932C102.887 120.961 102.595 121.046 102.307 121.144C97.9433 122.628 93.5785 124.108 89.2165 125.6C87.7503 126.101 86.2509 126.52 84.8034 127.3ZM131.473 105.688C131.5 105.724 131.528 105.76 131.555 105.797C131.962 105.671 132.371 105.552 132.775 105.416C137.759 103.748 142.743 102.084 147.722 100.402C148.345 100.191 148.935 99.8813 149.53 99.6219C149.027 97.9496 146.503 93.6432 145.193 92.2317C144.727 92.6236 144.228 92.9882 143.794 93.4177C139.822 97.3451 135.862 101.283 131.899 105.22C131.75 105.368 131.614 105.532 131.472 105.688H131.473ZM102.697 105.572C102.73 105.516 102.764 105.46 102.797 105.403C102.651 105.253 102.512 105.098 102.36 104.955C98.9009 101.711 95.4511 98.4576 91.9739 95.2341C90.9666 94.3003 90.066 93.2325 88.8015 92.517C87.0852 94.7917 85.6903 97.2183 84.5462 99.9685C90.6085 101.96 96.6731 103.701 102.698 105.572H102.697ZM227.169 82.0026C225.939 82.4039 222.57 84.4833 221.697 85.3825C222.524 86.3855 223.341 87.4115 224.196 88.4051C227.46 92.1993 230.735 95.9827 234.007 99.7697C234.54 100.386 235.079 100.997 235.617 101.608C235.853 101.877 236.108 102.06 236.497 101.709C233.7 95.0006 230.464 88.5103 227.17 82.0026H227.169ZM127.681 136.681C127.316 136.72 127.058 136.748 126.8 136.776C126.588 136.798 126.373 136.849 126.162 136.838C125.48 136.802 124.801 136.743 124.12 136.698C124.001 136.69 123.878 136.691 123.762 136.714C123.316 136.806 122.887 136.851 122.425 136.723C121.982 136.601 121.804 136.779 121.809 137.242C121.817 138.199 121.839 139.158 121.878 140.115C121.94 141.621 122.018 143.126 122.095 144.632C122.141 145.541 122.19 146.449 122.255 147.356C122.273 147.606 122.353 147.852 122.415 148.145C125.272 147.664 127.985 146.976 130.677 145.855C129.675 142.788 128.691 139.773 127.682 136.681H127.681ZM125.314 98.7314C129.42 94.0582 133.472 89.4469 137.522 84.8371C136.532 83.886 132.396 81.5732 130.768 81.1049C130.625 81.3916 130.433 81.6712 130.337 81.981C128.647 87.4598 126.969 92.9414 125.292 98.4237C125.273 98.4843 125.3 98.5585 125.314 98.7321V98.7314ZM238.902 98.5981C238.955 98.5873 239.008 98.5772 239.061 98.5664C239.061 98.3049 239.071 98.0433 239.059 97.7825C238.964 95.5828 238.858 93.3838 238.768 91.1848C238.659 88.5304 238.568 85.8761 238.456 83.2224C238.391 81.6806 238.428 80.13 238.127 78.5442C235.78 78.8446 233.534 79.3814 231.286 80.1999C233.851 86.3956 236.376 92.4968 238.902 98.5981H238.902ZM152.334 110.613C151.961 110.721 151.715 110.806 151.462 110.86C151.28 110.899 151.086 110.925 150.901 110.907C150.202 110.841 149.489 111.078 148.797 110.817C148.739 110.795 148.65 110.821 148.589 110.852C147.803 111.25 146.957 111.024 146.141 111.077C145.272 111.134 144.395 111.084 143.528 111.153C142.736 111.216 141.917 110.95 141.149 111.329C141.134 111.336 141.105 111.308 141.082 111.309C140.731 111.317 140.37 111.383 140.029 111.327C139.29 111.206 138.569 111.265 137.844 111.407C137.801 111.416 137.751 111.384 137.704 111.382C137.446 111.378 137.187 111.357 136.931 111.38C136.146 111.451 135.341 111.139 134.573 111.505C134.555 111.514 134.526 111.496 134.503 111.495C133.727 111.452 132.952 111.406 132.176 111.373C132.062 111.368 131.946 111.429 131.83 111.453C131.667 111.488 131.504 111.544 131.341 111.544C130.597 111.541 129.852 111.521 129.062 111.507C128.97 111.719 128.859 111.974 128.739 112.25C136.625 113.581 144.471 114.905 152.398 116.243C152.531 114.38 152.547 112.553 152.334 110.613ZM131.121 145.675C133.847 144.51 136.346 143.116 138.703 141.27C137.24 139.812 135.848 138.429 134.465 137.037C134.203 136.774 133.944 136.738 133.568 136.775C132.768 136.855 131.953 136.865 131.149 136.815C130.225 136.758 129.316 136.867 128.401 136.926C128.364 136.928 128.329 136.979 128.232 137.055C129.216 139.886 129.983 142.816 131.121 145.675ZM230.258 49.3484C229.977 49.3484 229.879 49.3318 229.789 49.3506C228.688 49.5826 227.611 49.4839 226.523 49.2173C225.953 49.0775 225.336 49.017 224.752 49.0638C223.395 49.1726 222.045 49.3657 220.693 49.5336C220.534 49.553 220.384 49.6337 220.165 49.708C220.33 50.11 220.378 50.6468 220.652 50.8139C221.311 51.2145 221.466 51.8299 221.671 52.4625C222.38 54.6449 223.095 56.8244 223.864 59.1747C225.79 55.7084 227.835 52.4848 230.259 49.3477L230.258 49.3484ZM127.411 135.936C127.349 135.689 127.326 135.572 127.29 135.459C126.443 132.844 125.596 130.23 124.745 127.617C124.694 127.461 124.635 127.285 124.524 127.174C123.85 126.5 123.16 125.842 122.436 125.141C122.163 125.442 121.938 125.718 121.683 125.964C121.402 126.235 121.326 126.529 121.351 126.926C121.441 128.336 121.48 129.748 121.54 131.16C121.595 132.452 121.641 133.745 121.71 135.036C121.749 135.763 122.036 135.938 122.752 135.735C122.928 135.684 123.159 135.585 123.289 135.652C123.774 135.905 124.238 135.892 124.741 135.731C124.909 135.677 125.118 135.743 125.307 135.768C125.447 135.787 125.609 135.892 125.718 135.848C126.256 135.631 126.783 135.719 127.413 135.936L127.411 135.936ZM113.073 133.706C113.106 133.711 113.14 133.715 113.173 133.72C113.37 133.397 113.55 133.06 113.769 132.752C115.104 130.883 116.451 129.022 117.784 127.151C117.948 126.922 118.099 126.663 118.172 126.395C118.443 125.408 118.68 124.412 118.945 123.356C118.38 123.39 118.502 122.492 117.788 122.701C117.222 123.209 116.443 123.256 115.689 123.133C114.964 123.014 114.282 123.009 113.565 123.169C113.158 123.26 113.069 123.434 113.07 123.795C113.076 127.099 113.073 130.403 113.073 133.707V133.706ZM155.183 135.508C155.547 135.42 155.856 135.235 156.069 135.313C156.742 135.56 157.371 135.41 158.015 135.263C158.037 135.258 158.063 135.261 158.086 135.267C158.489 135.374 158.888 135.418 159.266 135.185C159.99 135.436 160.735 135.081 161.419 135.199C162.165 135.328 162.9 134.773 163.607 135.256C163.62 135.265 163.652 135.245 163.675 135.239C164.098 135.122 164.522 135.005 164.947 134.888C164.823 134.222 164.601 134.118 164.063 134.473C163.902 134.579 163.724 134.656 163.536 134.755C163.47 134.593 163.425 134.528 163.42 134.461C163.364 133.652 163.245 133.569 162.543 133.894C162.304 134.005 162.097 134.066 161.899 133.774C161.92 133.704 161.957 133.618 161.97 133.528C162.036 133.06 161.889 132.904 161.436 132.959C161.365 132.968 161.296 132.987 161.226 133.005C160.804 133.108 160.602 132.952 160.618 132.536C160.633 132.134 160.458 131.956 160.068 131.987C159.975 131.994 159.887 132.047 159.794 132.062C159.409 132.123 159.286 131.987 159.366 131.6C159.48 131.046 159.342 130.894 158.759 130.881C158.573 130.877 158.389 130.806 158.191 130.762C158.381 130.237 158.345 129.889 158.084 129.719C157.137 131.609 156.19 133.501 155.184 135.509L155.183 135.508ZM125.533 128.213C125.488 128.241 125.444 128.269 125.4 128.298C126.197 130.762 126.994 133.227 127.787 135.675C128.286 135.745 128.772 135.952 129.164 135.838C129.987 135.598 130.815 136.165 131.609 135.734C131.669 135.701 131.792 135.765 131.877 135.804C132.285 135.991 132.634 135.9 133.001 135.61C130.488 133.121 128.011 130.667 125.534 128.212L125.533 128.213ZM152.174 109.012C151.345 108.994 150.54 108.964 149.735 108.963C149.378 108.963 149.021 109.035 148.663 109.049C146.174 109.15 143.685 109.247 141.196 109.342C138.658 109.439 136.119 109.529 133.58 109.63C132.169 109.686 130.758 109.757 129.347 109.825C129.313 109.827 129.28 109.877 129.216 109.93C129.274 110.091 129.337 110.265 129.367 110.347C129.786 110.415 130.126 110.474 130.469 110.524C130.587 110.541 130.724 110.574 130.824 110.531C131.269 110.345 131.693 110.474 132.144 110.51C132.804 110.561 133.479 110.257 134.157 110.489C134.583 110.192 135.009 110.274 135.443 110.475C135.524 110.513 135.65 110.538 135.721 110.503C136.237 110.245 136.758 110.188 137.303 110.398C137.363 110.421 137.452 110.404 137.515 110.377C138.276 110.061 139.12 110.629 139.872 110.157C139.941 110.113 140.095 110.228 140.211 110.232C140.953 110.259 141.696 110.12 142.436 110.264C142.457 110.268 142.484 110.255 142.505 110.244C142.887 110.059 143.265 110.151 143.667 110.162C144.328 110.181 145 110.157 145.664 110.148C146.132 110.141 146.607 109.878 147.109 110.093C147.167 110.118 147.262 110.108 147.32 110.077C147.756 109.84 148.2 110.034 148.631 110.015C149.322 109.983 150.008 109.803 150.711 109.925C151.111 109.586 151.512 109.747 151.921 109.91C152.016 109.948 152.139 109.916 152.301 109.916C152.257 109.607 152.223 109.357 152.175 109.012L152.174 109.012ZM139.14 140.972C140.752 139.668 142.253 138.354 143.606 136.763C143.223 136.797 142.94 136.854 142.66 136.842C141.957 136.812 141.255 136.751 140.552 136.705C140.481 136.701 140.405 136.704 140.339 136.725C139.425 137.02 138.504 136.808 137.584 136.789C136.764 136.773 135.942 136.877 135.122 136.931C135.109 136.932 135.098 136.97 135.041 137.067C136.368 138.353 137.572 139.795 139.141 140.972H139.14ZM120.268 131.592C119.789 132.43 119.818 132.556 120.44 132.902C120.74 133.07 120.74 133.268 120.436 133.481C119.917 133.845 119.907 133.902 120.154 134.447C120.221 134.595 120.23 134.77 120.268 134.942C119.918 134.983 119.67 135.012 119.435 135.04C119.404 135.381 119.454 135.573 119.797 135.579C119.98 135.582 120.167 135.648 120.343 135.709C121.102 135.969 121.341 135.799 121.346 134.985C121.346 134.913 121.349 134.842 121.346 134.77C121.26 132.788 121.18 130.806 121.084 128.825C121.054 128.216 120.98 127.609 120.917 126.898C120.332 127.457 119.806 127.916 119.6 128.644C119.463 129.125 119.25 129.585 119.099 130.063C119.021 130.309 118.969 130.574 118.969 130.83C118.966 131.407 119.127 131.529 119.699 131.499C119.86 131.49 120.024 131.55 120.269 131.593L120.268 131.592ZM229.48 51.7419C227.389 54.3732 225.725 57.2719 224.088 60.1683C224.328 60.7735 224.554 61.3449 224.784 61.9249C225.019 61.899 225.21 61.8932 225.394 61.8536C225.576 61.8139 225.752 61.7397 225.975 61.6662C226.34 58.0767 227.776 54.869 229.481 51.7419H229.48ZM171.134 128.609C170.682 128.049 170.306 127.458 169.81 126.996C168.92 126.167 167.841 126.316 167.079 127.287C166.844 127.587 166.592 127.875 166.369 128.184C166.264 128.329 166.211 128.512 166.142 128.659C167.214 129.696 169.963 129.701 171.133 128.61L171.134 128.609ZM133.879 117.617C133.884 117.576 133.89 117.535 133.895 117.494C133.791 117.464 133.688 117.426 133.582 117.403C131.201 116.893 128.84 116.264 126.357 116.195C126.272 116.403 126.194 116.591 126.145 116.712C126.645 117.517 127.323 117.669 128.155 117.64C129.829 117.582 131.507 117.619 133.183 117.617C133.415 117.617 133.647 117.617 133.879 117.617ZM240.214 116.372C239.295 116.447 238.477 116.514 237.652 116.582C237.876 117.991 238.961 119.442 239.969 119.731C240.048 118.659 240.126 117.589 240.214 116.372ZM104.972 106.684C104.954 106.717 104.935 106.749 104.917 106.782C105.666 107.482 106.41 108.189 107.17 108.877C107.282 108.978 107.471 109.036 107.626 109.039C108.364 109.056 109.103 109.046 109.881 109.046C109.995 108.827 110.112 108.601 110.261 108.313C108.457 107.758 106.714 107.221 104.971 106.684H104.972ZM163.386 126.822C163.853 126.055 164.278 125.359 164.742 124.598C163.64 124.361 162.706 123.951 161.636 123.851C161.924 125.033 162.287 126.076 163.386 126.822ZM245.809 115.858C245.994 116.685 245.839 117.444 246.06 118.163C247.396 118.157 248.099 117.308 248.836 116.457C247.925 115.792 246.901 116.065 245.809 115.858ZM246.134 107.434C245.817 108.342 245.173 109.144 245.406 110.285C246.207 110.228 247.002 110.172 247.792 110.116C247.778 109.117 247.035 107.968 246.134 107.434ZM147.511 25.3836C145.89 25.5997 144.256 25.7568 142.71 26.4117C142.931 26.4456 143.152 26.4802 143.392 26.5169C143.423 26.7453 143.451 26.9499 143.48 27.1603C145.09 27.1358 146.226 26.1113 147.511 25.3836ZM108.934 118.45C108.952 118.133 108.966 117.883 108.979 117.646C108.878 117.617 108.834 117.594 108.788 117.591C107.838 117.55 107.028 117.865 106.357 118.537C106.037 118.858 105.721 119.184 105.403 119.507C105.433 119.545 105.464 119.584 105.494 119.623C106.618 119.239 107.743 118.856 108.934 118.45ZM236.049 110.583C236.192 110.618 236.277 110.653 236.364 110.659C237.073 110.714 237.783 110.768 238.492 110.811C238.733 110.827 238.979 110.815 239.048 110.468C238.821 110.023 238.803 109.406 238.14 109.234C237.431 109.62 236.482 109.602 236.049 110.582V110.583ZM245.263 110.693C245.599 111.352 245.965 111.737 246.652 111.886C247.154 111.995 247.46 111.872 247.788 111.557C248.133 111.226 247.94 110.909 247.804 110.541C246.98 110.591 246.162 110.64 245.263 110.694V110.693ZM245.086 107.072C244.82 107.33 244.674 107.517 244.488 107.646C243.57 108.281 243.787 109.091 244.13 109.914C244.184 110.043 244.332 110.133 244.452 110.258C245.174 109.295 245.062 108.247 245.085 107.072H245.086ZM246.074 114.74C247.342 115.533 248.418 115.826 249.035 115.56C248.563 115.142 248.1 114.732 247.63 114.317C247.124 114.454 246.643 114.585 246.074 114.739L246.074 114.74ZM240.435 119.351C240.493 119.371 240.55 119.392 240.608 119.412C240.861 118.83 241.176 118.264 241.343 117.658C241.426 117.357 241.271 116.968 241.155 116.643C241.111 116.516 240.881 116.454 240.607 116.283C240.544 117.408 240.49 118.379 240.436 119.351H240.435ZM190.854 123.218C191.304 123.22 191.661 122.898 191.659 122.492C191.658 122.144 191.282 121.78 190.909 121.763C190.481 121.744 190.063 122.146 190.074 122.564C190.085 122.951 190.402 123.216 190.854 123.218ZM111.65 102.567C111.859 103.173 112.005 103.691 112.216 104.181C112.426 104.668 112.455 105.256 112.931 105.671C113.283 104.159 112.986 103.414 111.65 102.567V102.567ZM122.73 124.887C123.225 125.357 123.696 125.804 124.167 126.251C123.998 125.345 123.782 124.498 123.392 123.615C123.144 124.092 122.958 124.449 122.73 124.887ZM107.927 117.148H109.868C109.685 116.643 109.52 116.19 109.307 115.601C108.799 116.171 108.38 116.64 107.927 117.148ZM245.393 115.829C245.05 116.094 244.777 116.305 244.508 116.511C244.666 116.888 244.785 117.201 244.928 117.502C245.063 117.784 245.076 118.146 245.404 118.339C245.587 117.888 245.584 117.117 245.393 115.829ZM245.03 106.466C244.422 105.983 244.184 106.091 243.353 107.192C243.421 107.411 243.494 107.647 243.597 107.98C244.118 107.43 244.573 106.95 245.03 106.467V106.466ZM237.354 115.972C238.179 115.642 238.859 115.371 239.6 115.075C238.505 114.414 237.706 114.699 237.354 115.972ZM248.154 114.214C248.628 114.652 249.1 115.088 249.565 115.516C249.772 115.433 249.959 115.358 250.057 115.318C249.789 115.006 249.502 114.66 249.205 114.323C248.911 113.992 248.571 113.922 248.154 114.214ZM235.565 110.987C235.291 111.597 235.726 111.868 236.023 112.155C236.506 112.621 236.533 112.606 237.106 112.295C236.635 111.829 236.18 111.357 235.565 110.987ZM108.074 109.52C108.046 109.56 108.019 109.601 107.991 109.641C108.371 110.001 108.75 110.36 109.201 110.786C109.361 110.306 109.483 109.94 109.623 109.52H108.075H108.074ZM127.819 119.029C127.225 117.983 126.397 117.896 125.425 118.236C126.189 118.488 126.954 118.742 127.819 119.029ZM251.837 112.464C252.153 111.906 252.012 111.482 251.793 110.951C251.483 111.236 251.223 111.476 250.916 111.758C251.249 112.013 251.505 112.209 251.837 112.464ZM233.484 115.55C233.792 115.261 234.024 115.044 234.338 114.749C233.996 114.49 233.715 114.276 233.324 113.981C233.193 114.578 233.226 114.993 233.483 115.55H233.484ZM244.205 121.495C243.827 121.812 243.618 122.138 243.576 122.473C244.027 122.562 244.456 122.558 244.935 122.238C244.673 121.971 244.437 121.731 244.205 121.495ZM125.238 116.548C125.01 116.347 124.804 116.166 124.607 115.992C124.285 116.147 124.037 116.297 124.194 116.654C124.295 116.881 124.364 117.169 124.694 117.179C125.068 117.189 125.138 116.903 125.238 116.548ZM241.081 122.319C241.775 122.34 242.129 122.004 242.23 121.281C241.615 121.141 241.549 121.198 241.081 122.319ZM242.942 105.057C243.395 105.347 243.456 105.374 243.612 105.157C243.836 104.846 244.102 104.539 244.138 104.07C243.406 104.081 243.235 104.631 242.942 105.057ZM250.817 113.598C250.568 114.217 250.843 114.525 251.812 114.713C251.825 114.08 251.684 113.923 250.817 113.598ZM233.465 111.692C233.443 112.368 233.622 112.579 234.432 112.888C234.728 112.304 234.647 112.2 233.465 111.692ZM240.703 120.338C241.533 119.953 241.9 119.42 241.707 118.888C241.329 119.323 240.85 119.643 240.703 120.338ZM249.969 107.267C250.085 107.619 250.174 107.984 250.327 108.32C250.444 108.578 250.68 108.602 250.956 108.429C250.747 107.952 250.519 107.508 249.969 107.267H249.969ZM248.698 120.644C247.586 120.684 247.398 120.816 247.454 121.492C247.987 121.375 248.332 120.997 248.698 120.644ZM239.827 115.452C239.381 115.582 238.96 115.707 238.47 116.043C238.972 116.043 239.323 116.045 239.673 116.043C239.791 116.043 239.911 116.045 240.026 116.024C240.08 116.014 240.125 115.949 240.201 115.888C240.067 115.733 239.949 115.595 239.827 115.453V115.452ZM244.248 116.904C243.926 117.746 243.939 117.78 244.894 118.494C244.656 117.907 244.47 117.451 244.248 116.904ZM122.42 108.124C122.807 107.86 123.12 107.646 123.477 107.401C123.248 107.151 123.073 106.993 122.815 107.122C122.446 107.306 122.42 107.653 122.419 108.124H122.42ZM235.115 119.311C235.177 119.279 235.24 119.247 235.302 119.215C235.192 118.891 235.097 118.559 234.968 118.241C234.834 117.909 234.623 117.93 234.318 118.181C234.596 118.574 234.856 118.942 235.115 119.311ZM237.551 111.251C237.973 111.431 238.394 111.612 238.912 111.834C238.701 111.311 238.247 111.117 237.551 111.251ZM128.163 107.398C128.314 107.638 128.406 107.786 128.45 107.857C128.754 107.612 129.033 107.386 129.312 107.161C129.286 107.121 129.26 107.081 129.234 107.042C128.91 107.151 128.585 107.258 128.163 107.398ZM237.01 120.2C236.748 119.854 236.547 119.558 236.115 119.452C236.249 120.228 236.262 120.239 237.01 120.2ZM118.762 104.707C118.288 104.64 117.917 104.523 117.54 104.795C118.199 105.197 118.33 105.195 118.762 104.707ZM159.978 125.003C160.147 125.349 160.271 125.604 160.421 125.91C160.855 125.285 160.755 125.076 159.978 125.003ZM168.238 131.32C167.908 130.531 167.71 130.499 167.233 131.088C167.55 131.161 167.829 131.226 168.238 131.32ZM169.8 131.167C169.734 130.747 169.539 130.644 169.272 130.691C169.006 130.738 168.867 130.904 168.951 131.262C169.213 131.232 169.477 131.203 169.8 131.167ZM249.613 118.754C249.289 119.12 249.059 119.379 248.755 119.723C249.683 119.598 249.721 119.557 249.613 118.754ZM246.634 104.596C246.387 104.485 246.136 104.373 245.86 104.251C245.766 104.562 245.741 104.798 246.086 104.913C246.354 105.003 246.54 104.951 246.635 104.596H246.634ZM238.407 112.032C237.907 111.83 237.504 111.667 237.102 111.505C237.076 111.547 237.051 111.59 237.025 111.632C237.258 111.847 237.491 112.061 237.718 112.27C237.946 112.191 238.122 112.131 238.408 112.032H238.407ZM251.589 109.906C251.552 109.764 251.541 109.644 251.491 109.543C251.385 109.328 251.189 109.308 251.013 109.418C250.913 109.48 250.809 109.631 250.812 109.739C250.818 109.994 251.029 110.011 251.229 109.987C251.341 109.974 251.451 109.938 251.589 109.907V109.906ZM248.29 106.329C248.561 106.604 248.793 106.839 249.069 107.12C249.111 106.281 249.016 106.18 248.29 106.329ZM251.725 116.351C251.398 116.262 251.157 116.241 251.101 116.568C251.084 116.672 251.16 116.811 251.233 116.902C251.273 116.952 251.397 116.937 251.5 116.954C251.577 116.747 251.642 116.572 251.725 116.351ZM114.204 104.959C113.934 104.704 113.749 104.529 113.466 104.261C113.493 104.676 113.509 104.923 113.529 105.238C113.753 105.145 113.917 105.078 114.204 104.959V104.959ZM234.534 116.773H233.706C234.117 117.277 234.219 117.278 234.534 116.773ZM250.415 118.627C250.794 118.509 250.952 118.366 250.856 118.094C250.819 117.991 250.666 117.929 250.476 117.776C250.451 118.125 250.437 118.325 250.416 118.627H250.415ZM114.272 106.019C114.519 106.139 114.759 106.227 114.901 105.9C114.934 105.826 114.827 105.598 114.76 105.587C114.474 105.539 114.278 105.66 114.272 106.019ZM116.75 134.765C117.065 135.087 117.435 135.037 117.88 135.109C117.533 134.675 117.183 134.652 116.75 134.765ZM159.808 124.275C160.182 124.049 160.245 123.802 159.996 123.534C159.929 123.799 159.868 124.037 159.808 124.275ZM168.95 113.431C169.241 113.713 169.409 113.9 169.701 113.768C169.767 113.739 169.772 113.578 169.821 113.431H168.95ZM237.164 114.364C237.188 114.594 237.207 114.774 237.243 115.12C237.49 114.863 237.623 114.725 237.832 114.507C237.551 114.447 237.399 114.415 237.163 114.365L237.164 114.364ZM241.47 104.725C241.584 104.408 241.679 104.258 241.672 104.114C241.668 104.044 241.474 103.983 241.366 103.918C241.32 104.009 241.227 104.105 241.238 104.189C241.255 104.319 241.341 104.441 241.471 104.726L241.47 104.725ZM238.835 122.006C239.086 122.064 239.283 122.171 239.363 122.114C239.468 122.039 239.482 121.836 239.535 121.688L239.384 121.586C239.233 121.701 239.082 121.817 238.835 122.005V122.006ZM248.103 105.526C247.793 105.185 247.506 105.159 247.24 105.449C247.509 105.472 247.726 105.492 248.103 105.526ZM237.284 120.986C237.279 121.074 237.274 121.16 237.269 121.247C237.499 121.361 237.731 121.489 238.031 121.049C237.729 121.024 237.507 121.005 237.285 120.986H237.284ZM117.118 118.16C117.136 118.233 117.153 118.305 117.17 118.378C117.378 118.226 117.703 118.45 117.924 117.985C117.592 118.057 117.355 118.108 117.118 118.16ZM115.996 105.891C116.365 105.816 116.594 105.769 116.824 105.723C116.538 105.457 116.278 105.344 115.996 105.891ZM119.657 105.347C119.367 105.078 119.182 105.102 119.1 105.369C119.085 105.419 119.145 105.492 119.17 105.554C119.332 105.485 119.494 105.416 119.657 105.347ZM123.671 118.64C123.799 118.435 123.864 118.331 123.968 118.165C123.716 118.139 123.548 118.122 123.261 118.093C123.427 118.315 123.519 118.437 123.671 118.64ZM161.349 126.968C161.267 126.673 161.087 126.552 160.81 126.606C161.017 126.746 161.183 126.857 161.349 126.968ZM117.351 119.649C117.347 119.582 117.344 119.515 117.34 119.447L116.82 119.574C116.831 119.625 116.841 119.674 116.852 119.725C117.018 119.7 117.185 119.674 117.351 119.649ZM110.952 109.533C110.604 109.595 110.512 109.738 110.675 109.963C110.751 109.845 110.823 109.733 110.952 109.533ZM246.373 115.56C246.397 115.519 246.421 115.479 246.444 115.438C246.252 115.371 246.061 115.304 245.87 115.237L245.819 115.388C246.004 115.445 246.189 115.503 246.373 115.56V115.56ZM125.695 117.576H126.349C126.146 117.408 126.045 117.325 125.917 117.22C125.842 117.341 125.784 117.434 125.695 117.576ZM161.309 106.385C161.317 106.405 161.326 106.425 161.334 106.444H161.928C161.927 106.424 161.926 106.404 161.925 106.385H161.309H161.309ZM243.799 118.161C243.814 118.386 243.823 118.517 243.832 118.648C243.944 118.612 244.057 118.576 244.232 118.521C244.072 118.388 243.973 118.306 243.799 118.161ZM245.544 107.509C245.646 107.367 245.723 107.3 245.744 107.218C245.764 107.144 245.723 107.054 245.709 106.97C245.672 106.973 245.635 106.977 245.598 106.98C245.583 107.129 245.567 107.277 245.543 107.509L245.544 107.509ZM233.95 110.401C233.809 110.094 233.654 109.983 233.49 110.363C233.667 110.378 233.809 110.389 233.95 110.401ZM245.346 104.242C245.303 104.23 245.259 104.218 245.216 104.207C245.189 104.31 245.157 104.412 245.14 104.517C245.138 104.529 245.215 104.555 245.256 104.575C245.286 104.464 245.316 104.353 245.346 104.242Z" fill="#58626E"/>
<g id="Group 50">
<path id="Subtract" d="M163.5 137.41L174.5 135.41L180 129.41L288 119.41L289.5 178.91L163.5 137.41Z" fill="url(#paint0_linear_142_208)" fill-opacity="0.43"/>
<g id="QR">
<rect id="Rectangle 4405" x="251.74" y="114.6" width="56.508" height="56.1429" rx="28.0714" fill="black" stroke="white"/>
<g id="Group">
<path id="Vector_2" d="M287.054 132.025C286.891 132.025 286.765 132.158 286.765 132.312V135.208C286.765 135.369 286.898 135.494 287.054 135.494H289.968C290.131 135.494 290.257 135.362 290.257 135.208V132.312C290.257 132.15 290.123 132.025 289.968 132.025H287.054ZM286.765 152.862V151.995C286.765 151.517 287.157 151.127 287.638 151.127C288.119 151.127 288.511 151.517 288.511 151.995V152.862H290.257V151.995C290.257 151.517 290.649 151.127 291.129 151.127C291.61 151.127 292.002 151.517 292.002 151.995V153.729C292.002 154.207 291.61 154.597 291.129 154.597H284.139C283.659 154.597 283.267 154.207 283.267 153.729V151.995C283.267 151.517 283.659 151.127 284.139 151.127C284.62 151.127 285.012 151.517 285.012 151.995V152.862H286.765ZM281.521 140.713H282.394C282.875 140.713 283.267 141.102 283.267 141.58C283.267 142.058 282.875 142.447 282.394 142.447H278.895C278.414 142.447 278.022 142.058 278.022 141.58C278.022 141.102 278.414 140.713 278.895 140.713H279.768V138.971H277.149C276.669 138.971 276.277 138.581 276.277 138.104C276.277 137.626 276.669 137.236 277.149 137.236H282.394C282.875 137.236 283.267 137.626 283.267 138.104C283.267 138.581 282.875 138.971 282.394 138.971H281.521V140.713ZM290.257 142.447H289.384C288.903 142.447 288.511 142.058 288.511 141.58C288.511 141.102 288.903 140.713 289.384 140.713H290.257V139.846C290.257 139.368 290.649 138.978 291.129 138.978C291.61 138.978 292.002 139.368 292.002 139.846V143.322C292.002 143.8 291.61 144.189 291.129 144.189C290.649 144.189 290.257 143.8 290.257 143.322V142.447ZM281.521 145.916H280.648C280.167 145.916 279.775 145.527 279.775 145.049C279.775 144.571 280.167 144.182 280.648 144.182H282.394C282.875 144.182 283.267 144.571 283.267 145.049V148.526C283.267 149.003 282.875 149.393 282.394 149.393H277.149C276.669 149.393 276.277 149.003 276.277 148.526C276.277 148.048 276.669 147.658 277.149 147.658H281.521V145.916ZM287.054 130.291H289.968C291.092 130.291 292.01 131.195 292.01 132.319V135.215C292.01 136.332 291.1 137.244 289.968 137.244H287.054C285.929 137.244 285.012 136.34 285.012 135.215V132.312C285.02 131.195 285.929 130.291 287.054 130.291ZM269.575 130.291H272.49C273.614 130.291 274.531 131.195 274.531 132.319V135.215C274.531 136.332 273.621 137.244 272.49 137.244H269.575C268.451 137.244 267.534 136.34 267.534 135.215V132.312C267.541 131.195 268.451 130.291 269.575 130.291ZM269.575 132.025C269.412 132.025 269.287 132.158 269.287 132.312V135.208C269.287 135.369 269.42 135.494 269.575 135.494H272.49C272.652 135.494 272.778 135.362 272.778 135.208V132.312C272.778 132.15 272.645 132.025 272.49 132.025H269.575ZM269.575 147.658H272.49C273.614 147.658 274.531 148.562 274.531 149.687V152.583C274.531 153.7 273.621 154.611 272.49 154.611H269.575C268.451 154.611 267.534 153.707 267.534 152.583V149.687C267.541 148.562 268.451 147.658 269.575 147.658ZM269.575 149.393C269.412 149.393 269.287 149.525 269.287 149.68V152.575C269.287 152.737 269.42 152.862 269.575 152.862H272.49C272.652 152.862 272.778 152.73 272.778 152.575V149.68C272.778 149.518 272.645 149.393 272.49 149.393H269.575ZM281.521 132.025H277.149C276.669 132.025 276.277 131.636 276.277 131.158C276.277 130.68 276.669 130.291 277.149 130.291H282.394C282.875 130.291 283.267 130.68 283.267 131.158V134.635C283.267 135.112 282.875 135.502 282.394 135.502C281.913 135.502 281.521 135.112 281.521 134.635V132.025ZM277.149 135.502C276.669 135.502 276.277 135.112 276.277 134.635C276.277 134.157 276.669 133.767 277.149 133.767H278.895C279.376 133.767 279.768 134.157 279.768 134.635C279.768 135.112 279.376 135.502 278.895 135.502H277.149ZM268.414 145.916C267.933 145.916 267.541 145.527 267.541 145.049C267.541 144.571 267.933 144.182 268.414 144.182H271.913C272.393 144.182 272.785 144.571 272.785 145.049C272.785 145.527 272.393 145.916 271.913 145.916H268.414ZM275.404 145.916C274.923 145.916 274.531 145.527 274.531 145.049C274.531 144.571 274.923 144.182 275.404 144.182H277.149C277.63 144.182 278.022 144.571 278.022 145.049C278.022 145.527 277.63 145.916 277.149 145.916H275.404ZM278.03 152.862V153.729C278.03 154.207 277.638 154.597 277.157 154.597C276.676 154.597 276.284 154.207 276.284 153.729V151.995C276.284 151.517 276.676 151.127 277.157 151.127H280.656C281.136 151.127 281.528 151.517 281.528 151.995C281.528 152.472 281.136 152.862 280.656 152.862H278.03ZM274.531 140.713H275.404C275.885 140.713 276.277 141.102 276.277 141.58C276.277 142.058 275.885 142.447 275.404 142.447H273.658C273.177 142.447 272.785 142.058 272.785 141.58V140.713H271.913C271.432 140.713 271.04 140.323 271.04 139.846C271.04 139.368 271.424 138.971 271.913 138.971H273.658C274.139 138.971 274.531 139.36 274.531 139.838V140.713ZM267.541 139.838C267.541 139.36 267.933 138.971 268.414 138.971C268.895 138.971 269.287 139.36 269.287 139.838V141.573C269.287 142.05 268.895 142.44 268.414 142.44C267.933 142.44 267.541 142.05 267.541 141.573V139.838ZM285.02 139.838C285.02 139.36 285.412 138.971 285.892 138.971C286.373 138.971 286.765 139.36 286.765 139.838V143.315C286.765 143.792 286.373 144.182 285.892 144.182C285.412 144.182 285.02 143.792 285.02 143.315V139.838ZM288.511 147.658V146.791C288.511 146.313 288.903 145.924 289.384 145.924H291.129C291.61 145.924 292.002 146.313 292.002 146.791C292.002 147.269 291.61 147.658 291.129 147.658H290.257V148.526C290.257 149.003 289.865 149.393 289.384 149.393H285.892C285.412 149.393 285.02 149.003 285.02 148.526V146.791C285.02 146.313 285.412 145.924 285.892 145.924C286.373 145.924 286.765 146.313 286.765 146.791V147.658H288.511Z" fill="#F2F2F5"/>
</g>
</g>
<path id="Rectangle 9779" d="M162.052 112.384C162.197 112.449 162.306 112.575 162.348 112.729L167.179 130.186C167.246 130.425 167.104 130.673 166.864 130.739C166.628 130.803 166.383 130.665 166.315 130.429L161.318 113.019C161.193 112.581 161.637 112.197 162.052 112.384Z" fill="#0050FC"/>
<path id="Rectangle 9782" d="M166.582 109.441C166.719 109.509 166.821 109.632 166.862 109.779L172.043 128.522C172.11 128.762 171.969 129.01 171.729 129.075C171.492 129.14 171.247 129.002 171.179 128.765L165.831 110.069C165.704 109.623 166.165 109.237 166.582 109.441Z" fill="#0050FC"/>
<path id="Rectangle 9783" d="M184.14 115.311C184.164 115.469 184.117 115.63 184.01 115.75L172.097 129.08C171.931 129.265 171.646 129.281 171.461 129.114C171.279 128.95 171.262 128.67 171.424 128.485L183.209 115.041C183.508 114.7 184.07 114.863 184.14 115.311Z" fill="#0050FC"/>
<path id="Rectangle 9784" d="M189.195 120.043L177.164 133.508L176.5 132.91L188.964 118.68L189.195 120.043Z" fill="#0050FC"/>
<path id="Rectangle 9780" d="M145.083 125.336C145.203 125.258 145.35 125.231 145.49 125.261L166.669 129.885C166.911 129.938 167.065 130.178 167.011 130.42C166.958 130.66 166.721 130.813 166.481 130.762L145.266 126.308C144.799 126.21 144.684 125.596 145.083 125.336Z" fill="#0050FC"/>
<path id="Rectangle 9781" d="M145.662 131.643L167.5 136.41L167.306 137.283L144.391 132.472L145.662 131.643Z" fill="#0050FC"/>
<path id="Vector 260" d="M180 129.981C180 129.981 178.678 133.417 173 135.481C167.5 137.481 164 136.481 164 136.481" stroke="#B800AE" stroke-width="2" stroke-linecap="round"/>
</g>
</g>
</g>
</g>
</g>
</g>
</g>
</g>
<defs>
<clipPath id="bgblur_0_142_208_clip_path" transform="translate(20 20)"><path d="M0 0H361V180H0L0 0Z"/>
</clipPath><linearGradient id="paint0_linear_142_208" x1="295.43" y1="168.639" x2="182.96" y2="103.705" gradientUnits="userSpaceOnUse">
<stop stop-color="#4E66FF" stop-opacity="0"/>
<stop offset="1" stop-color="#8FA4D6"/>
</linearGradient>
</defs>
</svg>
